<?xml version="1.0" encoding="utf-8"?>
<!-- Generator: Adobe Illustrator 19.2.0, SVG Export Plug-In . SVG Version: 6.00 Build 0)  -->
<!DOCTYPE svg PUBLIC "-//W3C//DTD SVG 1.1//EN" "http://www.w3.org/Graphics/SVG/1.1/DTD/svg11.dtd">
<svg version="1.1" id="Layer_1" xmlns="http://www.w3.org/2000/svg" xmlns:xlink="http://www.w3.org/1999/xlink" x="0px" y="0px"
	 width="260px" height="81.4px" viewBox="0 0 260 81.4" style="enable-background:new 0 0 260 81.4;" xml:space="preserve">
<path d="M34.8,53.3c0.2,3.8-1.5,7.5-4.5,9.9C27,65.8,23,67.1,18.8,67c-3.3,0-6.6-0.6-9.7-1.7c-3.3-1.1-6.4-2.7-9.1-4.9l5.1-7.3
	c3.9,3.2,8.8,5,13.9,5c1.3,0.1,2.5-0.2,3.6-0.9c0.8-0.5,1.3-1.4,1.3-2.4c-0.1-1.1-0.8-2.2-1.8-2.7c-1.6-1-3.4-1.8-5.3-2.3L11.5,48
	c-1.4-0.6-2.8-1.4-4.1-2.2c-3.1-1.8-5-5.2-4.8-8.8c-0.1-3.7,1.7-7.2,4.7-9.4c3.1-2.4,7.1-3.6,12-3.6s9.8,1.7,14.7,5l-4.3,7.8
	c-3.1-2.3-6.9-3.6-10.8-3.7c-3.6,0-5.4,1-5.4,2.9c0,1.1,0.7,2.2,1.7,2.6c1.8,0.9,3.7,1.6,5.7,2.2l5.6,1.9c1.4,0.6,2.7,1.3,4,2.1
	C33.4,46.4,34.8,49.2,34.8,53.3z"/>
<path d="M49.5,43.9v22.4H37.9V8.8h11.6v20.5C53,25.8,57,24,61.3,24c4.2-0.1,8.2,1.7,11,4.7c3,3.1,4.5,7.3,4.5,12.4v25.2H65.3V43.5
	c0-6.4-2.4-9.6-7.1-9.6c-2.3,0-4.5,0.9-6.1,2.5C50.4,38.1,49.5,40.6,49.5,43.9z"/>
<path d="M117.1,66.3h-11v-5C103.5,64.9,99.4,67,95,67c-4,0.1-8-1.2-11.1-3.8c-3-2.5-4.6-6.3-4.5-10.2c0-4.3,1.6-7.5,4.7-9.6
	c3.1-2.1,7.4-3.2,12.7-3.2h8.7v-0.3c0-4.5-2.4-6.7-7.1-6.7c-2.2,0-4.4,0.4-6.4,1.2c-2,0.7-4,1.7-5.7,3l-5.2-7.5c5.4-4,12-6.1,18.8-6
	c5.1,0,9.2,1.3,12.4,3.8c3.2,2.5,4.8,6.5,4.8,12L117.1,66.3L117.1,66.3z M105.3,50.4v-2h-7.2c-4.7,0-7,1.4-7,4.3
	c0,1.3,0.6,2.6,1.7,3.4c1.4,0.9,3.1,1.3,4.8,1.2c2,0,3.9-0.6,5.5-1.9C104.6,54.2,105.4,52.3,105.3,50.4z"/>
<path d="M143.8,34.9c-3.5,0-6.1,1.2-7.8,3.7s-2.6,5.7-2.6,9.7v18h-11.5V24.6h11.6v5.5c1.6-1.8,3.5-3.2,5.6-4.3
	c2.1-1.2,4.5-1.8,6.9-1.9v11H143.8z"/>
<path d="M167.4,57.3c-2.4,0-4.8-0.8-6.8-2.2c-1.9-1.3-3.2-3.3-3.6-5.6h26.4V31.2c-0.6-0.8-1.3-1.5-2-2.1c-4.1-3.5-9.3-5.3-14.6-5.2
	c-5.5-0.1-10.9,2-14.9,5.8c-4.2,3.9-6.3,9.1-6.3,15.7s2.1,11.8,6.2,15.7c4.1,3.9,9.4,5.9,15.7,5.9c6.2,0,12.1-2.4,16.5-6.7l-6.5-7.1
	C174.9,55.9,171.2,57.4,167.4,57.3z M160.7,35.6c1.8-1.4,4-2.1,6.3-2.1c2.1-0.1,4.2,0.6,5.9,2c1.7,1.5,2.7,3.5,2.8,5.7h-18.3
	C157.7,39,158.9,36.9,160.7,35.6z"/>
<path d="M254.3,30c-3.8-4.1-8.1-6.1-13-6.1c-4.7,0-9.3,1.9-12.6,5.3v-4.6H221v25.7c0,5.1-1.3,9.1-3.9,11.9v19.2h11.6V60.8
	c2.8,4,7.4,6.3,12.3,6.2c5.1,0,9.5-2.1,13.3-6.2c3.8-4.2,5.9-9.8,5.7-15.5C260.2,39.6,258.1,34.2,254.3,30z M245.3,53.8
	c-1.8,2-4.4,3.2-7.1,3.2c-2.7,0-5.2-1.1-6.9-3.2c-1.9-2.3-2.9-5.3-2.8-8.3c-0.1-3,0.9-6,2.8-8.4c1.6-2.1,4.2-3.4,6.9-3.4
	c2.8,0,5.4,1.2,7.1,3.4c2,2.4,3,5.3,2.9,8.4C248.4,48.5,247.3,51.5,245.3,53.8z"/>
<path d="M211.6,12.3L202.2,0l-9.4,12.3l-9.4,12.3h11.7v23.1c0,6.4,2.4,9.6,7.1,9.6s7.1-3.2,7.1-9.6V24.6H221L211.6,12.3z"/>
</svg>
